<svg width="131" height="141" viewBox="0 0 131 141" fill="none" xmlns="http://www.w3.org/2000/svg">
<g filter="url(#filter0_d_1_26)">
<path d="M61.1176 119C61.1176 120.657 62.4607 122 64.1176 122C65.7744 122 67.1176 120.657 67.1176 119H61.1176ZM61.1176 4L61.1176 119H67.1176L67.1176 4L61.1176 4Z" fill="black"/>
<path d="M114.118 16L64.1176 4V61L114.118 51V16Z" stroke="black" stroke-width="6"/>
<path d="M111.76 120.996C112.863 122.233 114.759 122.342 115.996 121.24C117.233 120.137 117.342 118.241 116.24 117.004L111.76 120.996ZM59.9786 62.8987L111.76 120.996L116.24 117.004L64.4577 58.9065L59.9786 62.8987Z" fill="black"/>
<path d="M66.5072 63.0049L68.4356 60.7067L63.8393 56.85L61.9109 59.1481L66.5072 63.0049ZM13.7019 116.601C12.6369 117.871 12.8024 119.763 14.0716 120.828C15.3409 121.893 17.2331 121.727 18.2981 120.458L13.7019 116.601ZM61.9109 59.1481L13.7019 116.601L18.2981 120.458L66.5072 63.0049L61.9109 59.1481Z" fill="black"/>
<line x1="38" y1="93" x2="89" y2="93" stroke="black" stroke-width="4"/>
<line x1="31" y1="101" x2="97" y2="101" stroke="black" stroke-width="4"/>
<circle cx="64" cy="130" r="4" fill="#DA8484"/>
<circle cx="8" cy="130" r="4" fill="#84A6DA"/>
<circle cx="123" cy="130" r="4" fill="#84DAC5"/>
</g>
<defs>
<filter id="filter0_d_1_26" x="0" y="0.194809" width="131" height="141.805" filterUnits="userSpaceOnUse" color-interpolation-filters="sRGB">
<feFlood flood-opacity="0" result="BackgroundImageFix"/>
<feColorMatrix in="SourceAlpha" type="matrix" values="0 0 0 0 0 0 0 0 0 0 0 0 0 0 0 0 0 0 127 0" result="hardAlpha"/>
<feOffset dy="4"/>
<feGaussianBlur stdDeviation="2"/>
<feComposite in2="hardAlpha" operator="out"/>
<feColorMatrix type="matrix" values="0 0 0 0 0 0 0 0 0 0 0 0 0 0 0 0 0 0 0.25 0"/>
<feBlend mode="normal" in2="BackgroundImageFix" result="effect1_dropShadow_1_26"/>
<feBlend mode="normal" in="SourceGraphic" in2="effect1_dropShadow_1_26" result="shape"/>
</filter>
</defs>
</svg>
